<svg width="50" height="50" viewBox="0 0 50 50" fill="none" xmlns="http://www.w3.org/2000/svg">
<circle cx="25" cy="25" r="25" fill="#4B626C"/>
<path d="M19.163 34.2928C17.995 34.2925 16.835 34.1402 15.6831 33.8359C14.5312 33.5156 13.5553 33.0674 12.7554 32.4912L14.2682 29.5156C14.9081 29.9797 15.652 30.3479 16.4999 30.6201C17.3478 30.8923 18.2038 31.0286 19.0678 31.0288C20.0438 31.029 20.8119 30.8372 21.372 30.4533C21.9321 30.0695 22.2122 29.5416 22.2124 28.8696C22.2125 28.2296 21.9646 27.7255 21.4687 27.3574C20.9728 26.9892 20.1729 26.805 19.0689 26.8048L17.2929 26.8043L17.2935 24.2363L21.9748 18.9335L22.4065 20.3256L13.5985 20.3234L13.5993 17.2034L25.3593 17.2063L25.3586 19.7263L20.7013 25.0292L18.7336 23.9007L19.8616 23.901C21.9256 23.9015 23.4855 24.3659 24.5412 25.2941C25.597 26.2224 26.1247 27.4145 26.1244 28.8705C26.1241 29.8145 25.8759 30.7025 25.3797 31.5344C24.8835 32.3502 24.1233 33.014 23.0992 33.5258C22.0751 34.0375 20.763 34.2932 19.163 34.2928ZM32.1207 23.952C31.2407 23.9518 30.4568 23.7836 29.7688 23.4475C29.0809 23.0953 28.537 22.6231 28.1372 22.031C27.7533 21.4229 27.5615 20.7349 27.5617 19.9669C27.5619 19.1989 27.7621 18.5189 28.1622 17.927C28.5624 17.3351 29.0985 16.8713 29.7706 16.5355C30.4587 16.1836 31.2427 16.0078 32.1227 16.008C33.0027 16.0083 33.7787 16.1845 34.4506 16.5366C35.1385 16.8728 35.6744 17.3369 36.0582 17.929C36.4581 18.5211 36.6579 19.2012 36.6577 19.9692C36.6575 20.7372 36.4573 21.4251 36.0572 22.033C35.673 22.6249 35.1369 23.0968 34.4488 23.4486C33.7768 23.7845 33.0007 23.9523 32.1207 23.952ZM32.1212 21.96C32.7132 21.9602 33.1933 21.7843 33.5613 21.4324C33.9294 21.0645 34.1136 20.5765 34.1137 19.9685C34.1139 19.3605 33.93 18.8805 33.5621 18.5284C33.1942 18.1763 32.7142 18.0002 32.1222 18C31.5302 17.9999 31.0422 18.1758 30.6581 18.5277C30.29 18.8796 30.1059 19.3595 30.1057 19.9675C30.1056 20.5755 30.2894 21.0636 30.6573 21.4317C31.0413 21.7838 31.5292 21.9599 32.1212 21.96Z" fill="#FBF6F0"/>
</svg>
