<svg width="50" height="50" viewBox="0 0 50 50" fill="none" xmlns="http://www.w3.org/2000/svg">
<circle cx="25" cy="25" r="25" fill="#4B626C"/>
<path d="M18.7094 34.0047L18.7133 18.6447L20.3929 20.3251L15.3529 20.3238L15.3536 17.2038L22.6016 17.2057L22.5974 34.0057L18.7094 34.0047ZM29.7184 23.9514C28.8384 23.9512 28.0544 23.783 27.3665 23.4469C26.6786 23.0947 26.1347 22.6225 25.7349 22.0304C25.351 21.4223 25.1592 20.7343 25.1594 19.9663C25.1596 19.1983 25.3597 18.5183 25.7599 17.9264C26.16 17.3345 26.6962 16.8707 27.3682 16.5349C28.0563 16.183 28.8404 16.0072 29.7204 16.0074C30.6004 16.0077 31.3763 16.1839 32.0482 16.536C32.7362 16.8722 33.272 17.3363 33.6559 17.9284C34.0557 18.5205 34.2556 19.2006 34.2554 19.9686C34.2552 20.7366 34.055 21.4245 33.6549 22.0324C33.2707 22.6243 32.7346 23.0962 32.0465 23.448C31.3744 23.7839 30.5984 23.9517 29.7184 23.9514ZM29.7189 21.9594C30.3109 21.9596 30.7909 21.7837 31.159 21.4318C31.5271 21.0639 31.7112 20.5759 31.7114 19.9679C31.7115 19.3599 31.5277 18.8799 31.1597 18.5278C30.7918 18.1757 30.3119 17.9996 29.7199 17.9994C29.1279 17.9993 28.6398 18.1752 28.2557 18.5271C27.8877 18.879 27.7035 19.3589 27.7034 19.9669C27.7032 20.5749 27.8871 21.063 28.255 21.4311C28.6389 21.7832 29.1269 21.9593 29.7189 21.9594Z" fill="#FBF6F0"/>
</svg>
