<svg width="50" height="50" viewBox="0 0 50 50" fill="none" xmlns="http://www.w3.org/2000/svg">
<circle cx="25" cy="25" r="25" fill="#4B626C"/>
<path d="M13.5945 34.0034L13.5951 31.4834L20.0767 25.365C20.5888 24.9012 20.9649 24.4852 21.205 24.1173C21.4451 23.7494 21.6052 23.4134 21.6852 23.1094C21.7813 22.8055 21.8294 22.5255 21.8294 22.2695C21.8296 21.5975 21.5977 21.0854 21.1338 20.7333C20.6859 20.3652 20.022 20.181 19.142 20.1808C18.438 20.1806 17.7819 20.3164 17.1739 20.5883C16.5818 20.8601 16.0777 21.284 15.6615 21.8599L12.83 20.0352C13.4702 19.0754 14.3664 18.3156 15.5186 17.7559C16.6707 17.1962 17.9988 16.9165 19.5028 16.9169C20.7508 16.9172 21.8387 17.1255 22.7666 17.5417C23.7105 17.9419 24.4384 18.5101 24.9502 19.2462C25.478 19.9824 25.7418 20.8624 25.7415 21.8864C25.7414 22.4304 25.6693 22.9744 25.5251 23.5184C25.397 24.0464 25.1249 24.6063 24.7087 25.1982C24.3086 25.7901 23.7164 26.4539 22.9322 27.1897L17.5549 32.2524L16.8113 30.8362L26.2913 30.8386L26.2905 34.0066L13.5945 34.0034ZM32.0973 23.952C31.2173 23.9518 30.4333 23.7836 29.7454 23.4474C29.0575 23.0953 28.5136 22.6231 28.1138 22.031C27.7299 21.4229 27.5381 20.7349 27.5383 19.9669C27.5385 19.1989 27.7386 18.5189 28.1388 17.927C28.5389 17.3351 29.075 16.8713 29.7471 16.5354C30.4352 16.1836 31.2193 16.0078 32.0993 16.008C32.9793 16.0083 33.7552 16.1844 34.4271 16.5366C35.115 16.8728 35.6509 17.3369 36.0348 17.929C36.4346 18.5211 36.6345 19.2012 36.6343 19.9692C36.6341 20.7372 36.4339 21.4251 36.0338 22.033C35.6496 22.6249 35.1135 23.0968 34.4254 23.4486C33.7533 23.7844 32.9773 23.9523 32.0973 23.952ZM32.0978 21.96C32.6898 21.9602 33.1698 21.7843 33.5379 21.4324C33.906 21.0645 34.0901 20.5765 34.0903 19.9685C34.0904 19.3605 33.9065 18.8805 33.5386 18.5284C33.1707 18.1763 32.6908 18.0002 32.0988 18C31.5068 17.9999 31.0187 18.1758 30.6346 18.5277C30.2665 18.8796 30.0824 19.3595 30.0823 19.9675C30.0821 20.5755 30.266 21.0636 30.6339 21.4317C31.0178 21.7838 31.5058 21.9599 32.0978 21.96Z" fill="#FBF6F0"/>
</svg>
